<?xml version="1.0" encoding="utf-8"?>
<!-- Generator: Adobe Illustrator 24.2.3, SVG Export Plug-In . SVG Version: 6.00 Build 0)  -->
<svg version="1.1" id="Layer_1" xmlns="http://www.w3.org/2000/svg" xmlns:xlink="http://www.w3.org/1999/xlink" x="0px" y="0px"
	 viewBox="0 0 453.04 437.71" style="enable-background:new 0 0 453.04 437.71;" xml:space="preserve">
<style type="text/css">
	.st0{fill:#FFFFFF;}
</style>
<g>
	<polygon class="st0" points="48.46,315.11 52.54,315.57 76.26,318.26 76.89,314.89 57.01,309.68 59.14,295.94 59.43,294.1 
		57.62,293.81 37.82,290.6 37.29,297.24 55.04,297.22 49.85,311.35 	"/>
	<polygon class="st0" points="100.38,220.98 100.62,217.28 101.99,196.49 98.98,196.07 95.25,213.42 80.29,211.09 78.51,210.81 
		78.42,212.57 77.13,236.38 83.04,236.34 81.6,214.71 96.89,219.81 	"/>
	<polygon class="st0" points="73.6,258.41 72.75,256.41 70.68,257.1 57.02,261.64 52.07,238.34 46.01,239.65 51.85,266.19 
		52.63,269.73 55.85,268.36 70.13,262.26 74.99,276.55 80.44,274.46 	"/>
	<polygon class="st0" points="140.87,293.31 141.75,292.06 140.45,291.09 131.54,284.5 139.07,265.14 136.35,263.87 125.2,284.27 
		123.74,286.95 126.41,288.13 137.23,292.93 121.42,310.99 126.01,314.59 	"/>
	<polygon class="st0" points="46.62,191.24 47.02,193.03 51.38,212.6 57.75,210.63 51.15,194.16 66.19,193.74 70.2,193.63 
		69.12,189.67 62.81,166.64 59.45,167.31 61.99,187.71 48.44,190.82 	"/>
	<polygon class="st0" points="118.47,265.98 118.4,262.34 117.85,235.18 111.65,235.32 112.31,259.14 97.96,257.93 95.79,257.74 
		95.43,259.89 92.55,277.1 98.34,277.85 99.71,262.82 115.02,265.4 	"/>
	<polygon class="st0" points="109.05,301.56 107.66,298.85 100.9,285.07 96.28,287.46 101.93,298.67 90.65,303.04 88.94,303.7 
		89.46,305.45 93.62,319.47 98.26,317.9 93.76,306.08 106.24,302.39 	"/>
	<polygon class="st0" points="326.9,220.98 327.15,217.28 328.52,196.49 325.51,196.07 321.77,213.42 306.82,211.09 305.03,210.81 
		304.94,212.57 303.65,236.38 309.56,236.34 308.12,214.71 323.42,219.81 	"/>
	<polygon class="st0" points="274.99,315.11 279.06,315.57 302.79,318.26 303.41,314.89 283.53,309.68 285.66,295.94 285.95,294.1 
		284.14,293.81 264.34,290.6 263.81,297.24 281.56,297.22 276.37,311.35 	"/>
	<polygon class="st0" points="122.9,196.79 130.81,174.93 131.85,172.06 129.02,171.3 117.6,168.21 130.47,147.94 125.38,145.08 
		113.94,168.38 113.26,169.76 114.7,170.51 124.51,175.67 120.02,195.95 	"/>
	<polygon class="st0" points="264.91,216.36 241.63,230.38 238.51,232.25 240.85,234.86 251.19,246.44 239.2,255.62 242.92,260.12 
		255.95,248.5 257.57,247.06 256.26,245.32 247.58,233.83 268.09,221.69 	"/>
	<polygon class="st0" points="163.52,287.21 170.01,285.1 160.89,261.82 179.48,262.1 183.72,262.16 182.7,258.01 176.97,234.68 
		173.51,235.26 175.45,255.64 158.19,258.29 156.13,258.6 156.64,260.58 	"/>
	<polygon class="st0" points="345,265.98 344.92,262.34 344.38,235.18 338.17,235.32 338.83,259.14 324.49,257.93 322.31,257.74 
		321.95,259.89 319.07,277.1 324.86,277.85 326.24,262.82 341.54,265.4 	"/>
	<polygon class="st0" points="273.15,191.24 273.54,193.03 277.91,212.6 284.27,210.63 277.67,194.16 292.71,193.74 296.72,193.63 
		295.64,189.67 289.33,166.64 285.97,167.31 288.51,187.71 274.96,190.82 	"/>
	<polygon class="st0" points="300.12,258.41 299.27,256.41 297.2,257.1 283.55,261.64 278.59,238.34 272.53,239.65 278.37,266.19 
		279.15,269.73 282.37,268.36 296.65,262.26 301.51,276.55 306.96,274.46 	"/>
	<polygon class="st0" points="367.4,293.31 368.27,292.06 366.97,291.09 358.06,284.5 365.59,265.14 362.88,263.87 351.72,284.27 
		350.26,286.95 352.93,288.13 363.75,292.93 347.94,310.99 352.54,314.59 	"/>
	<polygon class="st0" points="155.68,221.81 157.14,223.44 158.87,222.12 172.75,211.54 169.04,207.03 157.75,217.05 148.36,204.69 
		146.24,201.91 143.81,204.61 125.61,224.79 130.24,228.93 146.06,211.11 	"/>
	<polygon class="st0" points="417.07,191.02 410.23,174.96 409.37,172.96 407.3,173.65 393.65,178.2 388.7,154.89 382.63,156.2 
		388.47,182.74 389.26,186.29 392.47,184.91 406.75,178.81 411.61,193.1 	"/>
	<polygon class="st0" points="382.21,221.81 383.67,223.44 385.39,222.12 399.28,211.54 395.57,207.03 384.28,217.05 374.88,204.69 
		372.76,201.91 370.33,204.61 352.13,224.79 356.76,228.93 372.58,211.11 	"/>
	<polygon class="st0" points="162.73,186.29 165.95,184.91 180.23,178.81 185.09,193.1 190.55,191.02 183.7,174.96 182.85,172.96 
		180.78,173.65 167.13,178.2 162.17,154.89 156.11,156.2 161.95,182.74 	"/>
	<polygon class="st0" points="230.59,201.9 232.28,199.52 239.13,189.86 253.7,208.95 258.14,205.16 240.23,186.37 239.17,185.26 
		237.97,186.35 229.74,193.77 212.26,182.55 210.48,184.96 228.26,199.94 	"/>
	<polygon class="st0" points="335.57,301.56 334.18,298.85 327.42,285.07 322.8,287.46 328.45,298.67 317.17,303.04 315.46,303.7 
		315.98,305.45 320.14,319.47 324.78,317.9 320.28,306.08 332.76,302.39 	"/>
	<polygon class="st0" points="220.88,251.46 207.77,243.97 216.48,231.12 218.45,228.22 215.11,226.78 190.17,215.99 187.73,221.69 
		209.67,230.99 202.6,243.53 201.53,245.43 203.33,246.65 217.79,256.42 	"/>
	<polygon class="st0" points="186.06,318.47 188.12,316.4 196.49,308.02 207.67,329.27 212.68,326.27 198.15,304.76 197.3,303.49 
		195.93,304.36 186.58,310.31 171.21,296.32 169.05,298.4 184.08,316.14 	"/>
	<polygon class="st0" points="42.87,39.75 43.38,41.72 50.26,68.35 56.75,66.25 47.63,42.97 66.22,43.24 70.46,43.31 69.44,39.16 
		63.71,15.82 60.25,16.41 62.19,36.79 44.93,39.43 	"/>
	<polygon class="st0" points="400.7,335.25 384.57,347.37 376.18,332.36 375.29,330.79 373.47,331.37 352.49,338.01 354.42,343.52 
		373.26,336.3 382.32,351.17 383.32,352.81 385.03,351.79 404.16,340.4 	"/>
	<polygon class="st0" points="236.16,415.65 244.07,393.79 245.11,390.92 242.28,390.16 230.86,387.07 243.73,366.8 238.64,363.94 
		227.2,387.24 226.52,388.62 227.96,389.37 237.77,394.53 233.28,414.81 	"/>
	<polygon class="st0" points="253.21,360.42 255.02,360.62 274.97,362.74 275.14,356.08 257.41,357.07 261.82,342.68 263,338.84 
		258.91,338.61 235.07,337.23 234.62,340.62 254.77,344.74 253.39,358.57 	"/>
	<polygon class="st0" points="183.46,412.48 182.38,408.53 176.07,385.5 172.71,386.17 175.25,406.57 161.7,409.68 159.88,410.1 
		160.28,411.89 164.64,431.46 171.01,429.49 164.41,413.01 179.45,412.59 	"/>
	<polygon class="st0" points="16.4,260.12 29.43,248.5 31.05,247.06 29.74,245.32 21.06,233.83 41.57,221.69 38.39,216.36 
		15.1,230.38 11.99,232.25 14.32,234.86 24.67,246.44 12.68,255.62 	"/>
	<polygon class="st0" points="26.68,360.42 28.5,360.62 48.45,362.74 48.61,356.08 30.89,357.07 35.3,342.68 36.48,338.84 
		32.38,338.61 8.54,337.23 8.1,340.62 28.24,344.74 26.87,358.57 	"/>
	<polygon class="st0" points="213.78,437.71 213.89,436.14 215.26,415.35 212.25,414.93 208.51,432.28 193.56,429.94 191.77,429.67 
		191.68,431.43 191.34,437.71 195.14,437.71 194.86,433.57 207.29,437.71 	"/>
	<polygon class="st0" points="286.01,430.4 282.3,425.89 271.02,435.91 261.62,423.55 259.5,420.76 257.07,423.46 244.22,437.71 
		252.44,437.71 259.32,429.97 266.29,437.71 276.41,437.71 	"/>
	<polygon class="st0" points="386.41,410.1 386.8,411.89 391.17,431.46 397.53,429.49 390.93,413.01 405.98,412.59 409.99,412.48 
		408.9,408.53 402.59,385.5 399.23,386.17 401.77,406.57 388.22,409.68 	"/>
	<polygon class="st0" points="349.42,196.79 357.33,174.93 358.37,172.06 355.54,171.3 344.12,168.21 356.99,147.94 351.9,145.08 
		340.46,168.38 339.78,169.76 341.22,170.51 351.03,175.67 346.54,195.95 	"/>
	<polygon class="st0" points="12.75,95.74 27.61,74.45 28.49,73.2 27.19,72.23 18.28,65.64 25.81,46.28 23.09,45.01 11.94,65.41 
		10.48,68.09 13.15,69.27 23.97,74.07 8.15,92.14 	"/>
	<polygon class="st0" points="59.49,430.4 55.78,425.89 44.49,435.91 35.1,423.55 32.98,420.76 30.54,423.46 17.7,437.71 
		25.92,437.71 32.8,429.97 39.76,437.71 49.89,437.71 	"/>
	<polygon class="st0" points="440.3,437.71 440.41,436.14 441.78,415.35 438.77,414.93 435.03,432.28 420.08,429.94 418.3,429.67 
		418.2,431.43 417.86,437.71 421.66,437.71 421.38,433.57 433.81,437.71 	"/>
	<polygon class="st0" points="376.26,119.99 372.17,119.75 348.33,118.37 347.89,121.76 368.03,125.88 366.65,139.71 366.47,141.57 
		368.29,141.76 388.23,143.88 388.4,137.22 370.67,138.21 375.08,123.82 	"/>
	<polygon class="st0" points="433.4,100.61 438.04,99.04 433.55,87.22 446.02,83.53 448.84,82.7 447.44,79.99 440.68,66.21 
		436.06,68.6 441.72,79.81 430.43,84.18 428.73,84.84 429.24,86.59 	"/>
	<polygon class="st0" points="269.39,39.75 269.9,41.72 276.78,68.35 283.27,66.25 274.15,42.97 292.75,43.24 296.98,43.31 
		295.96,39.16 290.23,15.82 286.77,16.41 288.71,36.79 271.45,39.43 	"/>
	<polygon class="st0" points="33.48,117.44 42.53,132.31 43.53,133.95 45.25,132.93 64.37,121.54 60.92,116.39 44.78,128.51 
		36.39,113.51 35.51,111.93 33.69,112.51 12.71,119.15 14.63,124.67 	"/>
	<polygon class="st0" points="410.25,262.16 409.23,258.01 403.49,234.68 400.03,235.26 401.97,255.64 384.71,258.29 382.65,258.6 
		383.16,260.58 390.04,287.21 396.53,285.1 387.41,261.82 406.01,262.1 	"/>
	<polygon class="st0" points="419.9,109.43 418.63,111.08 407.99,124.92 391.07,113.4 388.89,116.14 406.57,132.42 409.71,135.32 
		411.7,131.57 420.43,115.15 436.42,134.36 441.4,129.69 421.39,110.83 	"/>
	<polygon class="st0" points="328.71,53.19 328.89,75.45 328.91,77.45 330.83,77.45 348.24,77.48 351.83,97.34 357.55,96.13 
		352.35,74.75 351.9,72.89 350.09,72.95 332.91,73.56 334.91,53.48 	"/>
	<polygon class="st0" points="239.27,95.74 254.14,74.45 255.01,73.2 253.71,72.23 244.8,65.64 252.33,46.28 249.61,45.01 
		238.46,65.41 237,68.09 239.67,69.27 250.49,74.07 234.68,92.14 	"/>
	<polygon class="st0" points="102.19,53.19 102.37,75.45 102.39,77.45 104.31,77.45 121.72,77.48 125.31,97.34 131.02,96.13 
		125.83,74.75 125.38,72.89 123.57,72.95 106.39,73.56 108.39,53.48 	"/>
	<polygon class="st0" points="412.53,37.55 410.46,38.24 396.81,42.79 391.85,19.48 385.79,20.79 391.63,47.33 392.41,50.88 
		395.63,49.5 409.91,43.4 414.77,57.69 420.23,55.61 413.38,39.55 	"/>
	<polygon class="st0" points="149.74,119.99 145.65,119.75 121.81,118.37 121.36,121.76 141.5,125.88 140.13,139.71 139.94,141.57 
		141.76,141.76 161.71,143.88 161.87,137.22 144.15,138.21 148.56,123.82 	"/>
	<polygon class="st0" points="209.05,38.89 208.69,41.03 205.81,58.24 211.6,58.99 212.97,43.96 228.28,46.54 231.74,47.12 
		231.66,43.49 231.11,16.32 224.91,16.47 225.57,40.29 211.23,39.07 	"/>
	<polygon class="st0" points="275.99,405.15 279.21,403.77 293.49,397.67 298.35,411.96 303.81,409.88 296.96,393.82 296.11,391.82 
		294.04,392.51 280.39,397.06 275.43,373.75 269.37,375.06 275.21,401.6 	"/>
	<polygon class="st0" points="12.35,5.93 16.98,10.07 25.92,0 17.7,0 	"/>
	<polygon class="st0" points="210.16,0.96 213.64,2.12 213.78,0 207.29,0 	"/>
	<polygon class="st0" points="128.37,11.52 125.25,13.4 127.59,16.01 137.93,27.59 125.94,36.76 129.66,41.26 142.69,29.65 
		144.31,28.2 143,26.46 134.32,14.97 154.83,2.83 153.13,0 147.51,0 	"/>
	<polygon class="st0" points="238.87,5.93 243.5,10.07 252.44,0 244.22,0 	"/>
	<polygon class="st0" points="377.07,78.38 394.82,78.37 389.63,92.49 388.25,96.26 392.32,96.72 416.05,99.4 416.68,96.04 
		396.79,90.82 398.92,77.09 399.21,75.24 397.4,74.95 377.61,71.74 	"/>
	<polygon class="st0" points="74.47,2.83 96.41,12.13 89.34,24.67 88.27,26.57 90.07,27.79 104.53,37.56 107.62,32.61 94.51,25.11 
		103.22,12.26 105.18,9.36 101.85,7.92 83.55,0 75.68,0 	"/>
	<polygon class="st0" points="190.39,17.52 196.3,17.48 195.14,0 191.34,0 	"/>
	<polygon class="st0" points="416.91,17.52 422.82,17.48 421.66,0 417.86,0 	"/>
	<polygon class="st0" points="436.68,0.96 440.16,2.12 440.3,0 433.81,0 	"/>
	<polygon class="st0" points="354.89,11.52 351.78,13.4 354.11,16.01 364.45,27.59 352.46,36.76 356.18,41.26 369.21,29.65 
		370.83,28.2 369.52,26.46 360.85,14.97 381.35,2.83 379.66,0 374.03,0 	"/>
	<polygon class="st0" points="300.99,2.83 322.93,12.13 315.86,24.67 314.79,26.57 316.59,27.79 331.05,37.56 334.14,32.61 
		321.03,25.11 329.74,12.26 331.71,9.36 328.37,7.92 310.07,0 302.2,0 	"/>
	<polygon class="st0" points="268.94,2.96 270.4,4.58 272.13,3.26 276.41,0 266.29,0 	"/>
	<polygon class="st0" points="0,46.24 1.76,46.54 5.21,47.12 5.14,43.49 4.59,16.32 0,16.43 	"/>
	<polygon class="st0" points="378.17,435.22 374.03,437.71 379.66,437.71 	"/>
	<polygon class="st0" points="151.65,435.22 147.51,437.71 153.13,437.71 	"/>
	<polygon class="st0" points="303.43,434.84 302.2,437.71 310.07,437.71 	"/>
	<polygon class="st0" points="430.63,364.32 420.36,350.2 419.14,348.52 417.62,349.88 397.12,368.21 401.96,373.01 418.46,354.22 
		426.75,370.87 428.64,374.67 431.86,371.85 449.96,356.05 447.85,353.24 	"/>
	<polygon class="st0" points="453.04,292.17 446.18,292.41 448.17,272.33 441.97,272.05 442.15,294.31 442.17,296.31 444.09,296.31 
		453.04,296.32 	"/>
	<polygon class="st0" points="76.91,434.84 75.68,437.71 83.55,437.71 	"/>
	<polygon class="st0" points="452.09,40.29 437.75,39.07 435.57,38.89 435.21,41.03 432.33,58.24 438.12,58.99 439.5,43.96 
		453.04,46.24 453.04,16.43 451.43,16.47 	"/>
	<polygon class="st0" points="4.32,165.72 3.77,161.52 1.34,143.08 25.52,149.45 26.86,142.76 0,139.06 0,165.18 0.08,165.19 	"/>
	<polygon class="st0" points="4.07,201.9 5.76,199.52 12.61,189.86 27.18,208.95 31.62,205.16 13.71,186.37 12.65,185.26 
		11.45,186.35 3.22,193.77 0,191.7 0,198.48 1.74,199.94 	"/>
	<polygon class="st0" points="12.05,316.2 17.76,314.99 12.57,293.61 12.12,291.75 10.31,291.81 0,292.17 0,296.32 8.46,296.34 	"/>
	<polygon class="st0" points="11.25,394.53 6.75,414.81 9.64,415.65 17.55,393.79 18.58,390.92 15.76,390.16 4.34,387.07 
		17.21,366.8 12.12,363.94 0.68,387.24 0,388.62 1.44,389.37 	"/>
	<polygon class="st0" points="42.42,2.96 43.88,4.58 45.61,3.26 49.89,0 39.76,0 	"/>
	<polygon class="st0" points="80.58,131.35 79.35,129.66 77.83,131.02 57.33,149.35 62.18,154.16 78.68,135.37 86.97,152.01 
		88.86,155.81 92.07,153 110.17,137.19 108.07,134.39 90.85,145.46 	"/>
	<polygon class="st0" points="450.64,138.73 450.57,140.81 449.93,158.26 429.46,158.68 429.28,162.18 453.04,165.18 453.04,139.06 
		452.66,139.01 	"/>
	<polygon class="st0" points="193.38,109.43 192.11,111.08 181.47,124.92 164.55,113.4 162.37,116.14 180.05,132.42 183.19,135.32 
		185.18,131.57 193.91,115.15 209.9,134.36 214.87,129.69 194.86,110.83 	"/>
	<polygon class="st0" points="186.01,37.55 183.94,38.24 170.28,42.79 165.33,19.48 159.27,20.79 165.11,47.33 165.89,50.88 
		169.11,49.5 183.39,43.4 188.25,57.69 193.7,55.61 186.86,39.55 	"/>
	<polygon class="st0" points="84.04,84.63 82.67,85.5 73.32,91.45 57.95,77.46 55.79,79.54 70.82,97.28 72.79,99.61 74.86,97.54 
		83.22,89.16 94.4,110.41 99.42,107.42 84.89,85.9 	"/>
	<polygon class="st0" points="49.47,405.15 52.69,403.77 66.97,397.67 71.83,411.96 77.28,409.88 70.44,393.82 69.59,391.82 
		67.52,392.51 53.87,397.06 48.91,373.75 42.85,375.06 48.69,401.6 	"/>
	<polygon class="st0" points="150.55,78.38 168.3,78.37 163.11,92.49 161.72,96.26 165.8,96.72 189.53,99.4 190.15,96.04 
		170.27,90.82 172.4,77.09 172.69,75.24 170.88,74.95 151.08,71.74 	"/>
	<polygon class="st0" points="307.1,131.35 305.87,129.66 304.35,131.02 283.86,149.35 288.7,154.16 305.2,135.37 313.49,152.01 
		315.38,155.81 318.6,153 336.7,137.19 334.59,134.39 317.37,145.46 	"/>
	<polygon class="st0" points="310.56,84.63 309.19,85.5 299.84,91.45 284.47,77.46 282.32,79.54 297.34,97.28 299.32,99.61 
		301.38,97.54 309.75,89.16 320.93,110.41 325.94,107.42 311.42,85.9 	"/>
	<polygon class="st0" points="262.03,111.93 260.21,112.51 239.23,119.15 241.16,124.67 260,117.44 269.05,132.31 270.06,133.95 
		271.77,132.93 290.9,121.54 287.44,116.39 271.31,128.51 262.91,113.51 	"/>
	<polygon class="st0" points="206.88,100.61 211.52,99.04 207.02,87.22 219.5,83.53 222.31,82.7 220.92,79.99 214.16,66.21 
		209.54,68.6 215.19,79.81 203.91,84.18 202.2,84.84 202.72,86.59 	"/>
	<polygon class="st0" points="224.12,138.73 224.04,140.81 223.41,158.26 202.94,158.68 202.76,162.18 226.6,165.19 230.84,165.72 
		230.29,161.52 227.87,143.08 252.04,149.45 253.38,142.76 226.14,139.01 	"/>
	<polygon class="st0" points="96.64,353.22 101.61,348.55 81.6,329.68 80.12,328.29 78.85,329.94 68.21,343.78 51.29,332.26 
		49.11,335 66.79,351.28 69.93,354.17 71.92,350.43 80.64,334.01 	"/>
	<polygon class="st0" points="344.1,384.58 343.55,380.38 341.13,361.94 365.3,368.31 366.64,361.62 339.4,357.86 337.38,357.58 
		337.3,359.66 336.67,377.11 316.2,377.54 316.02,381.04 339.86,384.05 	"/>
	<polygon class="st0" points="343.85,420.76 345.55,418.37 352.39,408.72 366.96,427.81 371.4,424.02 353.49,405.23 352.44,404.12 
		351.23,405.2 343,412.63 325.52,401.4 323.74,403.82 341.52,418.8 	"/>
	<polygon class="st0" points="412.58,318.47 414.65,316.4 423.01,308.02 434.19,329.27 439.2,326.27 424.68,304.76 423.82,303.49 
		422.45,304.36 413.1,310.31 397.74,296.32 395.58,298.4 410.61,316.14 	"/>
	<polygon class="st0" points="453.04,191.7 438.78,182.55 437,184.96 453.04,198.48 	"/>
	<polygon class="st0" points="447.4,251.46 434.3,243.97 443,231.12 444.97,228.22 441.63,226.78 416.69,215.99 414.25,221.69 
		436.19,230.99 429.12,243.53 428.05,245.43 429.85,246.65 444.31,256.42 	"/>
	<polygon class="st0" points="155.79,351.17 156.79,352.81 158.51,351.79 177.64,340.4 174.18,335.25 158.04,347.37 149.65,332.36 
		148.77,330.79 146.95,331.37 125.97,338.01 127.89,343.52 146.74,336.3 	"/>
	<polygon class="st0" points="323.16,353.22 328.13,348.55 308.12,329.68 306.64,328.29 305.37,329.94 294.73,343.78 277.81,332.26 
		275.63,335 293.31,351.28 296.45,354.17 298.44,350.43 307.17,334.01 	"/>
	<polygon class="st0" points="117.58,384.58 117.03,380.38 114.6,361.94 138.78,368.31 140.12,361.62 112.88,357.86 110.86,357.58 
		110.78,359.66 110.15,377.11 89.68,377.54 89.5,381.04 113.34,384.05 	"/>
	<polygon class="st0" points="117.33,420.76 119.02,418.37 125.87,408.72 140.44,427.81 144.88,424.02 126.97,405.23 125.91,404.12 
		124.71,405.2 116.48,412.63 99,401.4 97.22,403.82 115,418.8 	"/>
	<polygon class="st0" points="238.57,316.2 244.29,314.99 239.09,293.61 238.64,291.75 236.83,291.81 219.65,292.41 221.65,272.33 
		215.45,272.05 215.63,294.31 215.65,296.31 217.57,296.31 234.98,296.34 	"/>
	<polygon class="st0" points="200.23,370.87 202.12,374.67 205.34,371.85 223.43,356.05 221.33,353.24 204.11,364.32 193.84,350.2 
		192.61,348.52 191.09,349.88 170.59,368.21 175.44,373.01 191.94,354.22 	"/>
</g>
</svg>
