<?xml version="1.0" encoding="utf-8"?>
<!-- Generator: Adobe Illustrator 24.2.3, SVG Export Plug-In . SVG Version: 6.00 Build 0)  -->
<svg version="1.1" id="Layer_1" xmlns="http://www.w3.org/2000/svg" xmlns:xlink="http://www.w3.org/1999/xlink" x="0px" y="0px"
	 viewBox="0 0 91.42 395.5" style="enable-background:new 0 0 91.42 395.5;" preserveaspectratio="none">
<style type="text/css">
	.st0{fill:#333333;}
	.st1{fill:url(#SVGID_1_);}
	.st2{fill:#E6E6E6;}
	.st3{fill:#999999;}
	.st4{fill:#4D4D4D;}
	.st5{fill:url(#SVGID_2_);}
</style>
<g>
	<rect class="st0" width="91.42" height="395.5"/>
	<g>
		<linearGradient id="SVGID_1_" gradientUnits="userSpaceOnUse" x1="3.5162" y1="197.7496" x2="87.9047" y2="197.7496">
			<stop  offset="0" style="stop-color:#B3B3B3"/>
			<stop  offset="0.5" style="stop-color:#CCCCCC"/>
			<stop  offset="1" style="stop-color:#B3B3B3"/>
		</linearGradient>
		<path class="st1" d="M83.13,391.98H8.29c-2.64,0-4.78-2.14-4.78-4.78V8.68c0-2.64,2.14-5.16,4.78-5.16h74.83
			c2.64,0,4.78,2.52,4.78,5.16V387.2C87.9,389.84,85.77,391.98,83.13,391.98z"/>
	</g>
	<g>
		<path class="st2" d="M58.88,183.45H32.54c-11.28,0-20.42-9.14-20.42-20.42V34.87c0-11.28,9.14-20.42,20.42-20.42h26.34
			c11.28,0,20.42,9.14,20.42,20.42v128.15C79.3,174.3,70.16,183.45,58.88,183.45z"/>
		<path class="st3" d="M58.88,14.45c11.28,0,20.42,9.14,20.42,20.42v128.15c0,11.28-9.14,20.42-20.42,20.42H32.54
			c-11.28,0-20.42-9.14-20.42-20.42V34.87c0-11.28,9.14-20.42,20.42-20.42H58.88 M58.88,12.84H32.54
			c-12.15,0-22.03,9.88-22.03,22.03v128.15c0,12.15,9.88,22.03,22.03,22.03h26.34c12.15,0,22.03-9.88,22.03-22.03V34.87
			C80.91,22.72,71.03,12.84,58.88,12.84L58.88,12.84z"/>
	</g>
	<path class="st4" d="M18.09,163.19V34.7c0-8.08,6.55-14.63,14.63-14.63H58.7c8.08,0,14.63,6.55,14.63,14.63v128.49
		c0,8.08-6.55,14.63-14.63,14.63H32.72C24.64,177.82,18.09,171.27,18.09,163.19z"/>
	<linearGradient id="SVGID_2_" gradientUnits="userSpaceOnUse" x1="58.911" y1="46.1134" x2="32.2276" y2="137.5993">
		<stop  offset="0" style="stop-color:#666666"/>
		<stop  offset="0.4805" style="stop-color:#808080"/>
		<stop  offset="1" style="stop-color:#666666"/>
	</linearGradient>
	<path class="st5" d="M29.9,69.37c2.47-2.44,4.94-4.87,7.47-7.23c2.51-2.39,5.06-4.74,7.71-7c2.64-2.25,5.31-4.5,8.28-6.42
		c1.51-0.93,3.02-1.88,4.99-2.3c0.5-0.08,1.06-0.13,1.66,0.01c0.3,0.07,0.62,0.2,0.9,0.38c0.15,0.08,0.27,0.21,0.4,0.32
		c0.12,0.11,0.29,0.33,0.37,0.48c0.35,0.69,0.36,1.22,0.39,1.72c0.01,0.5-0.02,0.98-0.06,1.44c-0.45,3.65-1.48,6.97-2.45,10.33
		c-0.98,3.35-2.02,6.67-3.09,9.98c-2.14,6.62-4.32,13.2-6.54,19.74c-2.19,6.55-4.34,13.11-6.22,19.67c-0.93,3.28-1.8,6.57-2.56,9.82
		c-0.39,1.62-0.75,3.24-1.03,4.83c-0.31,1.58-0.54,3.15-0.63,4.6c-0.06,0.72-0.06,1.41-0.03,2c0.04,0.57,0.15,1.07,0.21,1.2
		c0.02,0.07,0.02,0.05-0.07,0.01c-0.08-0.05-0.29-0.15-0.47-0.17c-0.38-0.04-0.21,0.13,0.25-0.01c0.43-0.11,1.03-0.38,1.63-0.73
		c0.6-0.36,1.24-0.77,1.87-1.22c1.27-0.91,2.53-1.97,3.77-3.08c5-4.46,9.7-9.58,14.62-14.58c0.06-0.07,0.17-0.07,0.24-0.01
		c0.05,0.05,0.06,0.13,0.04,0.19c-1.38,3.26-3.02,6.36-4.8,9.41c-1.79,3.05-3.75,5.99-5.97,8.85c-1.14,1.41-2.33,2.8-3.7,4.14
		c-0.68,0.67-1.41,1.33-2.24,1.95c-0.83,0.62-1.74,1.23-2.93,1.74c-1.14,0.48-2.77,0.98-4.83,0.48c-1.01-0.26-1.98-0.83-2.69-1.47
		c-0.71-0.64-1.23-1.37-1.58-2.08c-0.71-1.43-0.93-2.66-1.09-3.8c-0.13-1.13-0.16-2.18-0.12-3.19c0.19-4,1-7.52,1.92-11
		c0.95-3.46,2.1-6.81,3.3-10.11c2.41-6.6,5.04-13.05,7.74-19.46c2.67-6.42,5.52-12.74,8.25-19.09c1.36-3.18,2.72-6.35,3.97-9.55
		c1.2-3.2,2.44-6.47,3.07-9.67c0.07-0.39,0.12-0.79,0.14-1.15c0.02-0.35-0.02-0.71-0.07-0.81c-0.02-0.04,0.02,0-0.01-0.04
		c-0.04-0.03-0.05-0.08-0.1-0.09c-0.07-0.06-0.16-0.11-0.28-0.14c-0.23-0.08-0.56-0.09-0.91-0.05c-1.46,0.2-3.04,0.98-4.5,1.78
		c-2.96,1.66-5.78,3.69-8.5,5.8c-5.42,4.28-10.59,8.91-15.49,13.8c-0.06,0.07-0.17,0.07-0.23,0S29.83,69.44,29.9,69.37L29.9,69.37z"
		/>
	<circle class="st3" cx="45.71" cy="180.65" r="1.31"/>
	<circle class="st3" cx="45.71" cy="17.52" r="1.31"/>
</g>
</svg>
