<svg id="Layer_1" data-name="Layer 1" xmlns="http://www.w3.org/2000/svg" viewBox="0 0 75.72 74.84"><defs><style>.cls-1{fill:none;stroke:#000;stroke-linecap:round;stroke-linejoin:round;stroke-width:4px;}</style></defs><path class="cls-1" d="M72.46,46.69a35.09,35.09,0,0,0,1.26-7.21l-8-4.2a27.49,27.49,0,0,0-1.13-6.45l6-6.67A35,35,0,0,0,67,15.82l-8.8,1.89a28.46,28.46,0,0,0-5-4.21l.34-9A35.29,35.29,0,0,0,46.66,2L41.13,9.11a28.23,28.23,0,0,0-6.54,0L29.06,2a35,35,0,0,0-6.87,2.5l.33,9a28.46,28.46,0,0,0-5,4.21l-8.8-1.89a36.18,36.18,0,0,0-3.66,6.34l6,6.67A27.49,27.49,0,0,0,10,35.28L2,39.48a36.49,36.49,0,0,0,1.26,7.21l8.91,1.23a28.08,28.08,0,0,0,3.28,5.68l-3.39,8.32a36.55,36.55,0,0,0,5.6,4.72l7.63-4.79a28,28,0,0,0,6.15,2.24l2.76,8.57q1.81.18,3.66.18t3.66-.18l2.76-8.57a28,28,0,0,0,6.15-2.24l7.63,4.79a36.08,36.08,0,0,0,5.6-4.72L60.27,53.6a27.62,27.62,0,0,0,3.28-5.68Z"/><path class="cls-1" d="M26.42,27.2a15,15,0,1,0,6.21-4.37"/></svg>