<svg id="Layer_1" data-name="Layer 1" xmlns="http://www.w3.org/2000/svg" viewBox="0 0 76 76"><defs><style>.cls-1,.cls-2{fill:none;stroke:#000;stroke-linejoin:round;stroke-width:4px;}.cls-1{stroke-linecap:round;}</style></defs><path class="cls-1" d="M11.21,14a36,36,0,1,0,7.31-6.23l3,4.93"/><path class="cls-1" d="M11,24.75a4.45,4.45,0,0,1,3.36-1.84c3.33,0,6,4.84,6,10.82s-2.69,10.83-6,10.83-6-4.85-6-10.83A18.43,18.43,0,0,1,9,29"/><path class="cls-1" d="M57.09,24.75a4.45,4.45,0,0,1,3.37-1.84c3.32,0,6,4.84,6,10.82s-2.7,10.83-6,10.83-6-4.85-6-10.83A18,18,0,0,1,55.06,29"/><path class="cls-2" d="M43.59,34.49S55.9,48.11,48.08,56L14.93,51.7Z"/><path class="cls-1" d="M49.94,46.26A38,38,0,0,1,35,49"/></svg>